<svg xmlns="http://www.w3.org/2000/svg" xmlns:xlink="http://www.w3.org/1999/xlink" version="1.1" x="0px" y="0px" viewBox="0 0 139 173.75" enable-background="new 0 0 139 139" xml:space="preserve"><path d="M69.499,8.63c-33.543,0-60.833,27.29-60.833,60.834c0,33.545,27.29,60.835,60.833,60.835  c33.545,0,60.836-27.29,60.836-60.835C130.335,35.92,103.044,8.63,69.499,8.63z M69.499,124.299  c-30.235,0-54.833-24.599-54.833-54.835c0-30.235,24.598-54.834,54.833-54.834c30.236,0,54.836,24.599,54.836,54.834  C124.335,99.7,99.735,124.299,69.499,124.299z"/><polygon points="83.261,36.523 83.261,47.577 95.413,47.577 "/><path d="M51.5,90.208h35.044v-4.873H51.5v-4h35.044v-0.004h4h4.869V50.577H80.261V36.523H50.614c-3.882,0-7.027,3.146-7.027,7.027  v51.826c0,3.881,3.146,7.027,7.027,7.027h26.896v-1.714v-6.327v-0.155H51.5V90.208z M51.5,54.716h36v4h-36V54.716z M51.5,63.589h36  v4h-36V63.589z M51.5,72.462h36v4h-36V72.462z"/><polygon points="96.87,85.331 90.544,85.331 90.544,94.363 81.511,94.363 81.511,100.69 90.544,100.69 90.544,109.723   96.87,109.723 96.87,100.69 105.902,100.69 105.902,94.363 96.87,94.363 "/><text x="0" y="154" fill="#000000" font-size="5px" font-weight="bold" font-family="'Helvetica Neue', Helvetica, Arial-Unicode, Arial, Sans-serif">Created by Chanut is Industries</text><text x="0" y="159" fill="#000000" font-size="5px" font-weight="bold" font-family="'Helvetica Neue', Helvetica, Arial-Unicode, Arial, Sans-serif">from the Noun Project</text></svg>