<svg xmlns="http://www.w3.org/2000/svg" data-name="Layer 1" viewBox="0 0 5 6.25" x="0px" y="0px"><title>icon</title><g><path d="M3.61995,2.01779c-.14892-.13523-.28321-.28333-.42136-.42926a.613.613,0,0,0-.464-.20646c-.10824.00585-.23058.05386-.23017.17632a.00912.00912,0,0,0,.01786.00211c.04349-.15079.32746-.05655.41052-.01733a1.44786,1.44786,0,0,1,.38073.34461c.11409.11813.24978.21507.3716.325a.22082.22082,0,0,1,.08377.201.36458.36458,0,0,1-.12158.15683,1.81214,1.81214,0,0,1-.30282.20611c-.06544.03875-.1306.07786-.1961.11643-.06574.03869-.14049.05977-.20383.10244-.08968.06035-.05854.1546-.01212.2321.0312.05222.07306.09711.10519.14921.04835.07844.02857.17479.05883.2592.00977.02728.0542.02353.05233-.0079a.77068.77068,0,0,0-.0336-.24762,1.49925,1.49925,0,0,0-.104-.17714.26105.26105,0,0,1-.04063-.09278c-.0055-.03682.05216-.05766.07815-.07065.08541-.04262.16677-.08359.24838-.134.18609-.11491.52315-.26026.5351-.51707A.53156.53156,0,0,0,3.61995,2.01779Z" fill="#000000"/><path d="M3.43227,2.36234a1.2124,1.2124,0,0,0-.37558-.22683,1.369,1.369,0,0,1-.37359-.21243c-.00527-.0058-.01446.00193-.01048.00837a.4185.4185,0,0,0,.11122.13891,1.57332,1.57332,0,0,0,.18943.11526c.12322.06462.2451.15.37505.20412a1.384,1.384,0,0,0-.2715.172c-.08.07657-.15507.15829-.23035.2396l.00363-.02283A.94377.94377,0,0,1,2.895,2.63262c.03951-.10824.07686-.21226.10812-.32354A.01545.01545,0,0,0,2.9748,2.2976c-.00931.01932-.01949.038-.03.05661a.53186.53186,0,0,0-.1056-.011.824.824,0,0,1-.21595-.073A.63928.63928,0,0,1,2.28634,1.98c-.00129-.00363-.00755-.00322-.00709.001a.49174.49174,0,0,0,.294.33478.80362.80362,0,0,0,.25019.088.32479.32479,0,0,0,.08986.00456,1.79416,1.79416,0,0,0-.10554.18914.48116.48116,0,0,0-.057.30651.66377.66377,0,0,0-.14576.21864,1.27464,1.27464,0,0,1-.0679.17409c-.03255.05895-.07136.1135-.10139.17409-.02482.05011.05075.093.07569.04273a1.213,1.213,0,0,0,.1361-.31089.54605.54605,0,0,1,.1728-.27021c.09495-.10086.18656-.20459.28408-.30293a2.20888,2.20888,0,0,1,.32266-.22174A.02951.02951,0,0,0,3.43227,2.36234Z" fill="#000000"/><path d="M2.96409,3.63233a1.13755,1.13755,0,0,0-.07616-.171c-.01715-.05023-.02137-.09741-.0686-.13-.10355-.0713-.14435.05842-.18744.12287-.00439.00655.00439.01422.01071.0103.02406-.01481.04414-.0343.06667-.05122.03852-.029.0583.01311.08447.03419a1.11223,1.11223,0,0,1,.15718.19054A.00728.00728,0,0,0,2.96409,3.63233Z" fill="#000000"/><path d="M2.30044,1.70292a2.00793,2.00793,0,0,1-.35544.188.54847.54847,0,0,0-.25692.25973c-.08465.197.0826.53041.32582.46432.01294-.00351.01428-.02623-.00041-.02792a.31708.31708,0,0,1-.18726-.506.80221.80221,0,0,1,.24018-.183,1.4391,1.4391,0,0,0,.2444-.185C2.31777,1.70655,2.30747,1.69706,2.30044,1.70292Z" fill="#000000"/><path d="M2.57873,3.59849a1.4616,1.4616,0,0,1-.33372.12439,1.13221,1.13221,0,0,0-.19763.09079.69746.69746,0,0,1-.41123-.021.58688.58688,0,0,1-.32085-.32208.77228.77228,0,0,1,.28613-.76638c.00843-.00667-.003-.02107-.01171-.01469a.80076.80076,0,0,0-.3908.86191.70652.70652,0,0,0,.38664.37985.62092.62092,0,0,0,.24539.04783,1.16682,1.16682,0,0,0-.27706.41029c-.00433.01165.01375.022.02136.01206a1.76912,1.76912,0,0,1,.21232-.24726,2.95246,2.95246,0,0,1,.26957-.2153,1.5568,1.5568,0,0,1,.27425-.149,1.047,1.047,0,0,0,.26073-.17462C2.60162,3.60733,2.58886,3.59153,2.57873,3.59849Z" fill="#000000"/><path d="M3.20936,3.93433a1.06189,1.06189,0,0,0-.07944-.19891.01134.01134,0,0,0-.02177.00632A.8534.8534,0,0,1,3.099,4.0644a1.06747,1.06747,0,0,1-.04865.182A.70561.70561,0,0,0,2.8833,4.0651a.86175.86175,0,0,0-.46251-.17245c-.00679-.00088-.00978.00925-.00275.01048a.73574.73574,0,0,1,.39379.17954.71924.71924,0,0,1,.12357.13955.40752.40752,0,0,1,.045.08863.24372.24372,0,0,1,.00972.05959,1.11725,1.11725,0,0,1-.42323.4011.02273.02273,0,0,0,.01809.04109.996.996,0,0,0,.54083-.40023.7514.7514,0,0,0,.09712-.31171A.64118.64118,0,0,0,3.20936,3.93433Z" fill="#000000"/><path d="M3.24583,1.4419c-.03272-.059-.0528-.12334-.088-.18112a.5756.5756,0,0,0-.04507-.06334A4.74551,4.74551,0,0,0,2.9899.65485a.72293.72293,0,0,0-.455-.4381.68811.68811,0,0,0-.54557.06193A.49159.49159,0,0,0,1.7256.71292c.00234.01979.03208.03348.04226.01071a.89472.89472,0,0,1,.106-.20916A.48616.48616,0,0,1,2.07056.37241a.64646.64646,0,0,1,.48364.00351.83937.83937,0,0,1,.39665.46643,2.42454,2.42454,0,0,1,.08137.27478l-.01458-.01177A.86309.86309,0,0,0,2.70681.95691C2.49309.89866,2.21369.92372,2.05915.737c-.00427-.00509-.01077.00158-.00843.00673a.72257.72257,0,0,0,.51672.33343,1.18028,1.18028,0,0,1,.31124.11866,1.80271,1.80271,0,0,1,.19751.12984.69126.69126,0,0,0,.15805.12808A.00864.00864,0,0,0,3.24583,1.4419Z" fill="#000000"/><path d="M2.74434,1.22618c-.09858-.15454-.359-.12978-.51566-.13306-.14114-.003-.413-.05122-.42475-.23281-.00035-.0048-.00808-.00626-.0089-.001a.33254.33254,0,0,0,.24568.34807.92492.92492,0,0,0,.3202.03928l.02939.00053-.00562.00691a.54671.54671,0,0,1-.11374.09846c-.09969.06627-.19376.08482-.27753-.01516a.00911.00911,0,0,0-.015.00907.2044.2044,0,0,0,.2715.10443.41869.41869,0,0,0,.07229-.03325.39157.39157,0,0,1,.03085.042.23248.23248,0,0,1,.0154.11754.00546.00546,0,0,0,.00937.00363.22209.22209,0,0,0,.04706-.1313.16449.16449,0,0,0-.01733-.089A.25925.25925,0,0,0,2.496,1.25106c.01464.00117.02921.00252.04379.00457a1.042,1.042,0,0,0,.17041.03231A.041.041,0,0,0,2.74434,1.22618Z" fill="#000000"/></g><text x="0" y="20" fill="#000000" font-size="5px" font-weight="bold" font-family="'Helvetica Neue', Helvetica, Arial-Unicode, Arial, Sans-serif">Created by Alice Noir</text><text x="0" y="25" fill="#000000" font-size="5px" font-weight="bold" font-family="'Helvetica Neue', Helvetica, Arial-Unicode, Arial, Sans-serif">from the Noun Project</text></svg>